<?xml version="1.0" encoding="utf-8"?>
<svg version="1.1" xmlns:xlink="http://www.w3.org/1999/xlink" width="239px" height="220px" xmlns="http://www.w3.org/2000/svg">
  <g transform="matrix(1 0 0 1 -957 -352 )">
    <path d="M 1076.5 352  C 1143.42 352  1196 400.4  1196 462  C 1196 523.6  1143.42 572  1076.5 572  C 1009.58 572  957 523.6  957 462  C 957 400.4  1009.58 352  1076.5 352  Z " fill-rule="nonzero" fill="#95f204" stroke="none" />
    <path d="M 1076.5 352.5  C 1143.14 352.5  1195.5 400.68  1195.5 462  C 1195.5 523.3199999999999  1143.14 571.5  1076.5 571.5  C 1009.86 571.5  957.5 523.3199999999999  957.5 462  C 957.5 400.68  1009.86 352.5  1076.5 352.5  Z " stroke-width="1" stroke="#797979" fill="none" />
  </g>
</svg>