<?xml version="1.0" encoding="utf-8"?>
<svg version="1.1" xmlns:xlink="http://www.w3.org/1999/xlink" width="239px" height="220px" xmlns="http://www.w3.org/2000/svg">
  <g transform="matrix(1 0 0 1 -1863 -352 )">
    <path d="M 1982.5 352  C 2049.42 352  2102 400.4  2102 462  C 2102 523.6  2049.42 572  1982.5 572  C 1915.58 572  1863 523.6  1863 462  C 1863 400.4  1915.58 352  1982.5 352  Z " fill-rule="nonzero" fill="#d9001b" stroke="none" fill-opacity="0.7686274509803922" />
    <path d="M 1982.5 352.5  C 2049.14 352.5  2101.5 400.68  2101.5 462  C 2101.5 523.3199999999999  2049.14 571.5  1982.5 571.5  C 1915.86 571.5  1863.5 523.3199999999999  1863.5 462  C 1863.5 400.68  1915.86 352.5  1982.5 352.5  Z " stroke-width="1" stroke="#797979" fill="none" />
  </g>
</svg>